<?xml version="1.0" encoding="UTF-8" standalone="no"?><!DOCTYPE svg PUBLIC "-//W3C//DTD SVG 1.1//EN" "http://www.w3.org/Graphics/SVG/1.1/DTD/svg11.dtd"><svg width="100%" height="100%" viewBox="0 0 811 624" version="1.1" xmlns="http://www.w3.org/2000/svg" xmlns:xlink="http://www.w3.org/1999/xlink" xml:space="preserve" xmlns:serif="http://www.serif.com/" style="fill-rule:evenodd;clip-rule:evenodd;stroke-linejoin:round;stroke-miterlimit:2;"><path d="M811,56.927l0,510.146c0,31.419 -25.508,56.927 -56.927,56.927l-697.146,0c-31.419,0 -56.927,-25.508 -56.927,-56.927l0,-510.146c0,-31.419 25.508,-56.927 56.927,-56.927l697.146,0c31.419,0 56.927,25.508 56.927,56.927Z" style="fill:#ebebeb;"/><g id="logo"><path d="M459.252,326.315c0.123,-5.163 -0.182,-5.145 0.128,-10.319c0.22,-3.701 1.354,-3.467 5.083,-3.493c1.411,-0.01 14.458,-0.106 17.647,-0.006c0.305,0.009 2.727,0.085 3.27,1.961c0.158,0.546 0.173,4.156 0.175,4.518c0.015,3.406 0.164,38.508 0.041,42.578c-0.009,0.307 -0.082,2.784 -1.912,3.326c-1.787,0.528 -21.808,-0.277 -23.886,0.499c-2.152,0.804 -1.589,3.354 -1.661,15.21c-0.048,8.098 0.888,11.037 -3.948,11.066c-15.904,0.095 -20.696,-0.725 -21.953,0.713c-1.612,1.843 0.332,23.316 -1.356,25.035c-1.078,1.097 -1.29,1.212 -19.211,0.851c-4.772,-0.095 -6.822,-1.336 -6.968,3.431c-0.082,2.661 -0.009,63.422 -0.001,68.936c0.007,6.564 -0.643,8.554 4.021,8.601c21.263,0.214 21.633,0.276 22.256,1.48c1.734,3.345 -0.56,22.805 1.448,24.906c0.915,0.958 3.83,0.88 4.172,0.871c0.028,-0.001 4.207,-0.035 8.796,-0.028c30.105,0.041 30.068,0.167 60.153,0.204c28.427,0.034 28.43,0.169 30.886,-0.111c4.212,-0.483 3.135,-2.554 3.129,-10.984c-0.009,-12.716 -0.321,-14.813 1.463,-15.539c1.802,-0.735 21.158,-0.447 21.737,-0.462c4.967,-0.123 3.673,-4.545 3.654,-7.476c-0.106,-17.308 -0.037,-17.613 1.21,-18.401c1.813,-1.143 20.107,-0.11 22.945,-0.868c2.636,-0.706 2.139,-4.633 2.088,-10.08c-0.128,-13.413 -0.351,-14.822 1.143,-15.762c2.29,-1.441 22.356,-0.232 25.006,-1.215c2.284,-0.846 1.681,-5.848 1.681,-6.484c-0.032,-41.739 -0.103,-41.736 0.041,-43.964c0.279,-4.309 3.44,-3.032 21.45,-3.082c2.057,-0.006 4.505,0.176 4.964,-2.739c0.075,-0.477 0.032,-0.469 -0.029,-4.501c-0.282,-18.335 -0.23,-107.849 -0.271,-112.955c-0.312,-38.238 0.471,-38.72 -1.213,-40.213c-2.158,-1.914 -21.338,0.305 -23.765,-1.219c-2.167,-1.36 -1.036,-2.095 -1.19,-26.055c-0.151,-23.534 0.258,-24.973 -0.758,-26.193c-1.803,-2.162 -16.657,-0.311 -23.298,-1.081c-4.523,-0.525 -3.313,-3.842 -3.34,-12.33c-0.043,-12.875 0.304,-13.44 -1.152,-14.421c-1.499,-1.012 -10.525,0.179 -20.367,-0.22c-3.404,-0.138 -4.68,-0.588 -5.164,-3.037c-0.151,-0.761 0.173,-18.929 -0.062,-20.571c-0.546,-3.816 -3.776,-2.735 -12.376,-2.677c-2.938,0.019 -2.909,0.003 -5.868,0.026c-6.034,0.047 -8.664,1.449 -8.641,-4.582c0.073,-19.721 0.17,-20.571 -0.666,-21.573c-2.051,-2.457 -23.853,0.55 -25.934,-1.875c-1.416,-1.65 -0.396,-21.671 -0.822,-23.649c-0.672,-3.11 -4.853,-2.187 -9.413,-2.159c-14.332,0.084 -15.38,0.246 -16.019,-2.127c-0.423,-1.576 -0.364,-14.958 0.023,-20.492c0.333,-4.747 3.302,-3.666 8.654,-3.672c31.073,-0.037 31.046,-0.028 33.745,-0.092c0.911,-0.022 43.328,-0.034 44.007,-0.016c16.927,0.434 17.426,-0.39 18.577,1.213c0.635,0.885 0.64,3.697 0.64,4.024c0.029,18.576 -0.475,19.487 1.039,20.875c1.513,1.388 10.53,0.802 22.293,0.863c27.825,0.142 27.975,0.048 28.873,0.801c2.352,1.966 -0.587,23.313 2.275,25.425c1.932,1.426 17.565,0.057 23.082,0.786c3.525,0.465 2.814,2.784 2.806,15.8c-0.004,7.997 -0.867,10.558 4.573,10.639c20.003,0.292 20.565,-0.579 21.83,1.218c0.415,0.59 0.767,0.644 0.643,18.959c-0.034,4.802 -0.83,6.659 3.957,6.769c20.269,0.467 21.639,-1.106 22.733,2.17c0.076,0.23 -0.073,20.838 -0.019,23.329c0.481,22.522 -0.697,26.003 0.995,27.604c2.092,1.979 22.289,0.312 24.888,1.357c1.681,0.676 1.416,1.78 1.496,12.116c0.349,44.541 -0.119,44.538 -0.076,48.409c0.242,21.855 -0.16,21.83 -0.01,38.145c0.063,6.807 0.386,41.973 0.062,85.091c-0.197,26.382 1.093,27.554 -1.838,28.682c-0.82,0.315 -18.737,0.122 -20.367,0.104c-5.878,-0.063 -5.101,2.203 -5.085,7.891c0.009,3.405 0.094,35.055 -0.084,42.572c-0.059,2.493 0.12,3.028 -2.274,3.715c-0.704,0.202 -20.204,-0.538 -22.113,0.07c-3.296,1.049 -1.696,2.454 -2.099,22.616c-0.098,4.942 -3.339,3.528 -9.43,3.734c-3.628,0.122 -15.652,-1.009 -17,1.072c-1.548,2.391 0.051,22.264 -1.084,24.215c-0.968,1.664 -4.229,1.185 -11.255,1.178c-12.53,-0.016 -14.48,-0.524 -15.514,2.224c-0.157,0.417 -0.172,3.889 -0.173,4.228c-0.069,16.258 0.101,16.242 0.022,17.651c-0.217,3.866 -3.979,2.921 -7.809,2.924c-53.99,0.025 -53.987,-0.088 -58.682,-0.016c-9.682,0.148 -11.949,-0.216 -13.124,1.502c-1.291,1.887 -0.472,18.341 -0.688,21.921c-0.229,3.82 -1.424,3.547 -5.258,3.547c-221.36,-0.048 -221.353,0.016 -240.601,-0.067c-31.497,-0.136 -32.014,0.684 -33.221,-0.932c-0.824,-1.102 -0.557,-1.257 -0.553,-17.189c-0.006,-45.967 -0.012,-91.935 -0.018,-137.902c0.111,-28.279 -0.425,-28.587 0.893,-29.945c1.758,-1.812 2.264,-0.935 71.046,-0.977c18.535,-0.012 19.947,0.134 20.656,-1.272c1.226,-2.438 -0.257,-20.806 0.866,-23.775c0.97,-2.56 6.054,-1.892 9.291,-1.882c35.369,0.119 37.819,0.019 41.105,-0.113c3.816,-0.154 3.666,-1.322 3.549,-5.132c-0.072,-2.287 0.063,-18.469 0.295,-19.253c0.725,-2.453 6.024,-2.025 6.395,-2.013c6.63,0.207 6.608,0.078 13.217,-0.015c5.145,-0.073 6.765,0.022 6.637,-5.123c-0.092,-3.671 -0.107,-3.643 -0.131,-7.323Z" style="fill:#010101;"/><path d="M282.555,43.807c20.64,-0.003 64.155,0.043 64.541,0.037c0.081,-0.001 4.052,-0.39 4.185,3.744c0.305,9.546 -0.323,9.531 0.128,19.064c0.241,5.085 2.701,4.13 13.302,4.243c15.125,0.163 35.969,-0.378 38.059,0.348c2.625,0.91 1.812,4.636 1.922,21.808c0.032,5.074 1.89,4.473 6.961,4.548c11.4,0.169 18.26,-0.638 19.242,1.199c1.001,1.873 0.61,2.025 0.549,38.269c-0.012,6.769 0.081,6.744 0.078,7.329c-0.015,3.434 -0.848,6.528 3.622,6.769c1.524,0.082 1.514,-0.295 19.069,0.075c3.792,0.079 3.866,1.087 3.867,4.9c0.021,23.473 0.04,46.944 0.059,70.416c0.003,3.354 -0.271,4.373 -3.939,4.391c-20.863,0.103 -21.479,-0.329 -22.237,1.338c-1.02,2.242 -0.274,38.362 -0.408,44.152c-0.134,5.717 0.48,7.715 -3.744,7.822c-5.377,0.136 -20.694,-0.201 -21.725,0.2c-1.775,0.691 -1.38,1.834 -1.38,21.319c0,4.103 -0.103,5.321 -4.791,5.346c-22.009,0.114 -21.987,0.06 -44.004,-0.001c-5.843,-0.016 -4.498,2.793 -4.595,13.723c-0.098,10.843 0.996,13.25 -4.207,13.305c-8.685,0.091 -8.678,-0.412 -108.562,-0.138c-17.015,0.047 -19.74,1.05 -20.027,-2.943c-0.019,-0.257 0.067,-20.208 0.122,-20.393c0.645,-2.203 1.851,-2.145 6.699,-2.3c1.174,-0.038 1.159,0.403 14.669,0.01c5.34,-0.156 4.979,-1.702 5.089,-5.145c0.226,-7.04 -0.522,-19.267 0.672,-20.613c1.304,-1.47 1.677,-0.779 19.184,-1.325c25.381,-0.789 33.309,2.074 34.104,-2.943c0.016,-0.098 -0.139,-14.393 0.097,-20.566c0.119,-3.119 1.488,-3.533 3.936,-3.541c9.081,-0.034 20.04,0.877 21.715,-1.131c1.046,-1.254 0.643,-3.428 0.665,-18.827c0.001,-0.342 0.006,-3.939 0.134,-4.279c0.871,-2.334 1.38,-2.057 3.88,-2.105c2.912,-0.057 19.983,0.041 20.478,-0.073c2.626,-0.601 2.603,-1.133 2.617,-3.817c0.034,-5.867 0.211,-37.084 -0.054,-73.343c-0.041,-5.525 -2.491,-4.232 -9.822,-4.293c-9.597,-0.078 -15.483,0.538 -16.453,-1.332c-0.8,-1.537 -0.568,-1.634 -0.684,-14.923c-0.065,-7.472 1.072,-10.618 -4.872,-10.422c-1.627,0.054 -18.931,0.628 -20.339,-0.186c-1.147,-0.663 -1.222,-2.393 -1.232,-2.625c-0.078,-1.778 0.157,-20.904 -0.191,-22.051c-0.726,-2.397 -1.705,-1.913 -25.179,-1.928c-72.922,-0.043 -72.896,-0.109 -79.233,-0.015c-1.637,0.023 -3.565,0.029 -3.76,3.506c-0.226,3.992 0.575,19.738 -0.587,22.014c-1.436,2.814 -15.606,0.992 -22.053,1.221c-5.01,0.178 -4.046,3.119 -4.062,10.491c-0.16,67.565 0.183,67.739 -0.571,68.776c-1.031,1.414 -1.454,1.049 -30.572,1.113c-1.524,0.003 -18.689,0.041 -19.044,0.026c-3.087,-0.132 -3.49,-1.697 -3.537,-3.888c-0.06,-2.912 0.089,-20.329 0.051,-20.475c-0.659,-2.57 -1.203,-2.484 -3.87,-2.478c-18.744,0.045 -22.28,1.599 -22.455,-3.45c-0.04,-1.13 -0.004,-36.456 -0.001,-39.626c0.006,-4.834 0.487,-8.898 -1.21,-9.96c-1.083,-0.676 -1.193,-0.474 -15.95,-0.302c-6.476,0.076 -9.474,0.995 -9.69,-4.417c-0.048,-1.237 -0.214,-69.737 -0.05,-71.829c0.381,-4.846 5.165,-3.443 14.138,-3.712c3.713,-0.111 207.778,0.018 211.257,-0.104Z" style="fill:#010101;"/><path d="M168.124,579.238c-16.607,-0.139 -106.099,-0.025 -107.117,-0.053c-4.074,-0.116 -3.872,-2.396 -3.885,-4.942c-0.232,-43.206 -0.065,-106.623 -0.041,-115.895c0.251,-95.38 -0.266,-95.344 0.012,-190.715c0.019,-6.543 -1.155,-9.146 5.396,-9.28c1.628,-0.034 83.885,-0.066 89.506,-0.041c18.805,0.087 19.802,-0.468 20.55,1.979c0.606,1.976 0.475,62.717 0.493,217.128c0,7.866 0.01,97.585 -0.035,98.324c-0.261,4.178 -2.804,3.36 -4.878,3.496Z" style="fill:#010101;"/><path d="M727.75,547.835c-0.17,-19.218 -0.334,-20.431 2.123,-21.036c0.318,-0.079 20.678,-0.381 22.255,0.258c2.019,0.819 1.749,5.931 1.714,10.517c-0.27,35.108 0.132,35.106 0,38.156c-0.17,3.957 -3.132,3.516 -6.238,3.503c-28.971,-0.116 -42.943,0.16 -44.129,-0.139c-2.864,-0.726 -2.159,-6.267 -2.159,-6.323c-0.067,-13.406 -0.233,-17.697 1.05,-18.783c1.774,-1.501 15.799,-0.314 21.731,-0.805c4.656,-0.387 3.588,-3.788 3.653,-5.349Z" style="fill:#010201;"/></g></svg>