<?xml version="1.0" encoding="UTF-8" standalone="no"?><!DOCTYPE svg PUBLIC "-//W3C//DTD SVG 1.1//EN" "http://www.w3.org/Graphics/SVG/1.1/DTD/svg11.dtd"><svg width="100%" height="100%" viewBox="0 0 812 812" version="1.1" xmlns="http://www.w3.org/2000/svg" xmlns:xlink="http://www.w3.org/1999/xlink" xml:space="preserve" xmlns:serif="http://www.serif.com/" style="fill-rule:evenodd;clip-rule:evenodd;stroke-linejoin:round;stroke-miterlimit:2;"><path d="M811.5,253.388l0,305.224c0,139.849 -113.539,253.388 -253.388,253.388l-304.224,0c-139.849,0 -253.388,-113.539 -253.388,-253.388l0,-305.224c0,-139.849 113.539,-253.388 253.388,-253.388l304.224,0c139.849,0 253.388,113.539 253.388,253.388Z" style="fill:#ebebeb;"/><g id="logo"><path d="M455.714,419.205c0.114,-4.775 -0.168,-4.759 0.118,-9.545c0.204,-3.424 1.252,-3.206 4.702,-3.231c1.305,-0.009 13.373,-0.098 16.323,-0.005c0.282,0.008 2.523,0.079 3.025,1.814c0.147,0.505 0.16,3.844 0.161,4.179c0.014,3.151 0.152,35.619 0.038,39.383c-0.008,0.284 -0.076,2.575 -1.768,3.076c-1.653,0.489 -20.171,-0.256 -22.094,0.461c-1.991,0.744 -1.47,3.102 -1.536,14.069c-0.045,7.49 0.821,10.208 -3.652,10.235c-14.711,0.088 -19.142,-0.67 -20.305,0.659c-1.491,1.704 0.307,21.566 -1.254,23.156c-0.997,1.015 -1.193,1.121 -17.769,0.787c-4.414,-0.088 -6.31,-1.236 -6.446,3.174c-0.076,2.462 -0.008,58.662 -0.001,63.763c0.007,6.071 -0.594,7.912 3.719,7.956c19.668,0.198 20.01,0.255 20.586,1.369c1.604,3.094 -0.518,21.094 1.339,23.037c0.847,0.886 3.543,0.814 3.859,0.806c0.026,-0.001 3.892,-0.033 8.136,-0.026c27.846,0.038 27.812,0.155 55.639,0.189c26.294,0.031 26.296,0.156 28.568,-0.103c3.896,-0.446 2.9,-2.362 2.894,-10.159c-0.008,-11.762 -0.297,-13.701 1.353,-14.373c1.666,-0.68 19.57,-0.414 20.106,-0.427c4.595,-0.114 3.398,-4.204 3.38,-6.915c-0.098,-16.009 -0.034,-16.292 1.119,-17.02c1.677,-1.057 18.598,-0.102 21.223,-0.803c2.438,-0.653 1.978,-4.285 1.931,-9.324c-0.118,-12.407 -0.324,-13.709 1.057,-14.579c2.118,-1.333 20.679,-0.214 23.129,-1.124c2.113,-0.783 1.555,-5.409 1.555,-5.998c-0.03,-38.607 -0.095,-38.604 0.038,-40.665c0.258,-3.985 3.182,-2.805 19.84,-2.851c1.902,-0.005 4.167,0.163 4.592,-2.533c0.069,-0.441 0.03,-0.434 -0.027,-4.163c-0.261,-16.959 -0.213,-99.756 -0.251,-104.478c-0.289,-35.369 0.436,-35.814 -1.122,-37.195c-1.996,-1.771 -19.737,0.282 -21.981,-1.128c-2.004,-1.258 -0.958,-1.938 -1.1,-24.099c-0.14,-21.768 0.239,-23.099 -0.702,-24.227c-1.668,-2 -15.407,-0.288 -21.55,-1c-4.183,-0.486 -3.064,-3.554 -3.09,-11.405c-0.039,-11.909 0.281,-12.431 -1.065,-13.339c-1.387,-0.936 -9.735,0.166 -18.839,-0.204c-3.148,-0.128 -4.329,-0.544 -4.776,-2.809c-0.14,-0.704 0.16,-17.509 -0.057,-19.027c-0.505,-3.529 -3.493,-2.529 -11.447,-2.476c-2.718,0.018 -2.691,0.003 -5.428,0.024c-5.581,0.043 -8.014,1.341 -7.992,-4.238c0.068,-18.241 0.157,-19.027 -0.616,-19.954c-1.897,-2.273 -22.063,0.509 -23.988,-1.734c-1.309,-1.527 -0.366,-20.045 -0.76,-21.874c-0.621,-2.877 -4.489,-2.023 -8.706,-1.997c-13.256,0.077 -14.226,0.228 -14.817,-1.968c-0.391,-1.457 -0.337,-13.835 0.022,-18.954c0.308,-4.391 3.054,-3.391 8.005,-3.396c28.742,-0.034 28.716,-0.026 31.213,-0.085c0.843,-0.02 40.076,-0.031 40.704,-0.015c15.656,0.402 16.118,-0.361 17.183,1.122c0.588,0.818 0.592,3.42 0.592,3.722c0.027,17.182 -0.44,18.024 0.961,19.308c1.399,1.284 9.74,0.742 20.62,0.798c25.737,0.132 25.876,0.045 26.706,0.741c2.175,1.818 -0.543,21.563 2.105,23.517c1.787,1.319 16.247,0.053 21.35,0.727c3.261,0.43 2.603,2.575 2.596,14.614c-0.004,7.397 -0.802,9.766 4.23,9.841c18.502,0.27 19.022,-0.536 20.191,1.126c0.384,0.545 0.71,0.596 0.594,17.536c-0.031,4.441 -0.768,6.159 3.66,6.261c18.748,0.432 20.015,-1.023 21.027,2.007c0.071,0.213 -0.068,19.274 -0.018,21.578c0.445,20.832 -0.645,24.052 0.92,25.532c1.935,1.831 20.616,0.289 23.021,1.255c1.555,0.626 1.309,1.646 1.384,11.207c0.323,41.198 -0.11,41.196 -0.071,44.777c0.224,20.214 -0.148,20.191 -0.009,35.282c0.058,6.296 0.357,38.824 0.057,78.706c-0.182,24.402 1.011,25.486 -1.7,26.53c-0.759,0.292 -17.331,0.113 -18.839,0.096c-5.437,-0.058 -4.718,2.038 -4.703,7.299c0.008,3.149 0.087,32.424 -0.077,39.377c-0.054,2.305 0.111,2.801 -2.103,3.436c-0.651,0.187 -18.688,-0.498 -20.453,0.065c-3.049,0.97 -1.569,2.27 -1.942,20.919c-0.091,4.572 -3.088,3.263 -8.722,3.453c-3.356,0.113 -14.477,-0.934 -15.724,0.992c-1.432,2.212 0.047,20.593 -1.003,22.398c-0.896,1.539 -3.912,1.096 -10.411,1.09c-11.59,-0.015 -13.393,-0.484 -14.35,2.057c-0.145,0.385 -0.159,3.597 -0.16,3.911c-0.064,15.038 0.094,15.023 0.02,16.327c-0.201,3.576 -3.68,2.702 -7.223,2.704c-49.938,0.023 -49.936,-0.081 -54.278,-0.015c-8.956,0.137 -11.052,-0.199 -12.139,1.39c-1.194,1.745 -0.437,16.965 -0.636,20.276c-0.212,3.533 -1.318,3.281 -4.863,3.281c-204.749,-0.045 -204.742,0.015 -222.545,-0.062c-29.134,-0.126 -29.611,0.632 -30.728,-0.862c-0.763,-1.019 -0.516,-1.163 -0.512,-15.899c-0.005,-42.517 -0.011,-85.036 -0.016,-127.553c0.103,-26.157 -0.394,-26.442 0.826,-27.698c1.626,-1.676 2.094,-0.864 65.714,-0.904c17.144,-0.011 18.45,0.123 19.106,-1.176c1.134,-2.255 -0.237,-19.244 0.801,-21.991c0.897,-2.368 5.6,-1.75 8.594,-1.741c32.715,0.11 34.981,0.018 38.02,-0.104c3.529,-0.142 3.391,-1.223 3.282,-4.747c-0.066,-2.115 0.058,-17.083 0.273,-17.809c0.67,-2.269 5.572,-1.873 5.915,-1.862c6.132,0.191 6.112,0.072 12.225,-0.014c4.759,-0.068 6.257,0.02 6.139,-4.738c-0.085,-3.395 -0.099,-3.369 -0.121,-6.774Z" style="fill:#010101;"/><path d="M292.276,157.897c19.091,-0.003 59.341,0.039 59.698,0.034c0.075,-0.001 3.748,-0.361 3.871,3.463c0.282,8.83 -0.299,8.816 0.118,17.634c0.223,4.703 2.498,3.82 12.303,3.924c13.99,0.151 33.27,-0.35 35.203,0.322c2.428,0.841 1.676,4.288 1.778,20.171c0.03,4.694 1.748,4.137 6.439,4.207c10.545,0.156 16.89,-0.59 17.798,1.109c0.925,1.733 0.564,1.873 0.507,35.397c-0.011,6.261 0.075,6.238 0.072,6.779c-0.014,3.177 -0.784,6.038 3.35,6.261c1.41,0.076 1.4,-0.273 17.638,0.069c3.508,0.073 3.576,1.005 3.577,4.532c0.019,21.711 0.037,43.421 0.054,65.132c0.003,3.102 -0.251,4.045 -3.643,4.061c-19.297,0.095 -19.867,-0.304 -20.569,1.238c-0.943,2.073 -0.254,35.483 -0.377,40.839c-0.123,5.288 0.444,7.136 -3.463,7.235c-4.973,0.126 -19.141,-0.186 -20.095,0.185c-1.642,0.639 -1.277,1.696 -1.277,19.719c0,3.795 -0.095,4.922 -4.432,4.945c-20.357,0.106 -20.337,0.056 -40.702,-0.001c-5.405,-0.015 -4.16,2.584 -4.25,12.693c-0.091,10.029 0.921,12.256 -3.892,12.306c-8.033,0.084 -8.026,-0.381 -100.416,-0.128c-15.738,0.043 -18.259,0.972 -18.524,-2.722c-0.018,-0.237 0.062,-18.692 0.113,-18.863c0.597,-2.038 1.712,-1.984 6.196,-2.128c1.086,-0.035 1.072,0.373 13.568,0.009c4.939,-0.144 4.605,-1.574 4.707,-4.759c0.209,-6.512 -0.483,-17.821 0.621,-19.066c1.206,-1.36 1.551,-0.721 17.745,-1.225c23.477,-0.73 30.81,1.919 31.545,-2.722c0.015,-0.091 -0.129,-13.313 0.09,-19.023c0.11,-2.885 1.376,-3.268 3.641,-3.276c8.4,-0.031 18.536,0.811 20.086,-1.046c0.968,-1.16 0.594,-3.171 0.615,-17.414c0.001,-0.316 0.005,-3.643 0.123,-3.958c0.806,-2.159 1.277,-1.902 3.589,-1.947c2.694,-0.053 18.483,0.038 18.942,-0.068c2.429,-0.556 2.407,-1.048 2.421,-3.531c0.031,-5.426 0.195,-34.301 -0.05,-67.839c-0.038,-5.11 -2.304,-3.915 -9.085,-3.97c-8.877,-0.072 -14.321,0.498 -15.218,-1.232c-0.74,-1.422 -0.525,-1.512 -0.632,-13.803c-0.06,-6.911 0.992,-9.822 -4.506,-9.64c-1.505,0.05 -17.51,0.581 -18.813,-0.172c-1.061,-0.613 -1.13,-2.213 -1.14,-2.428c-0.072,-1.645 0.145,-19.335 -0.176,-20.396c-0.672,-2.217 -1.577,-1.769 -23.289,-1.783c-67.45,-0.039 -67.425,-0.1 -73.287,-0.014c-1.514,0.022 -3.297,0.027 -3.478,3.243c-0.209,3.692 0.532,18.256 -0.543,20.362c-1.328,2.603 -14.435,0.917 -20.398,1.129c-4.634,0.164 -3.742,2.885 -3.757,9.704c-0.148,62.494 0.17,62.656 -0.528,63.615c-0.954,1.308 -1.345,0.97 -28.277,1.03c-1.41,0.003 -17.286,0.038 -17.615,0.024c-2.855,-0.122 -3.228,-1.57 -3.272,-3.596c-0.056,-2.694 0.083,-18.803 0.047,-18.939c-0.609,-2.377 -1.113,-2.297 -3.58,-2.292c-17.338,0.042 -20.608,1.479 -20.769,-3.192c-0.037,-1.045 -0.004,-33.72 -0.001,-36.653c0.005,-4.471 0.451,-8.23 -1.119,-9.212c-1.001,-0.626 -1.103,-0.438 -14.753,-0.28c-5.99,0.071 -8.763,0.92 -8.963,-4.086c-0.045,-1.144 -0.198,-64.504 -0.046,-66.439c0.353,-4.482 4.778,-3.185 13.077,-3.433c3.434,-0.103 192.186,0.016 195.403,-0.096Z" style="fill:#010101;"/><path d="M186.433,653.148c-15.361,-0.129 -98.137,-0.023 -99.079,-0.049c-3.768,-0.107 -3.581,-2.216 -3.593,-4.572c-0.214,-39.964 -0.06,-98.622 -0.038,-107.198c0.232,-88.222 -0.246,-88.189 0.011,-176.403c0.018,-6.052 -1.068,-8.459 4.991,-8.584c1.506,-0.031 77.59,-0.061 82.789,-0.038c17.393,0.08 18.316,-0.433 19.008,1.831c0.56,1.828 0.44,58.011 0.456,200.834c0,7.276 0.009,90.262 -0.033,90.945c-0.242,3.865 -2.593,3.107 -4.512,3.234Z" style="fill:#010101;"/><path d="M704.062,624.102c-0.157,-17.776 -0.309,-18.898 1.964,-19.457c0.294,-0.073 19.126,-0.353 20.585,0.239c1.867,0.757 1.617,5.486 1.585,9.728c-0.25,32.473 0.122,32.472 0,35.293c-0.157,3.66 -2.897,3.253 -5.77,3.24c-26.797,-0.107 -39.721,0.148 -40.817,-0.129c-2.649,-0.672 -1.997,-5.797 -1.997,-5.848c-0.062,-12.4 -0.216,-16.369 0.972,-17.373c1.641,-1.388 14.613,-0.29 20.1,-0.745c4.307,-0.358 3.319,-3.504 3.379,-4.947Z" style="fill:#010201;"/></g></svg>